<svg height="512" viewBox="0 0 377.925 377.925" width="512" xmlns="http://www.w3.org/2000/svg"><path d="M167.885 288.099l-2.018 44.502H84.352a80.715 80.715 0 00-22.123-59.052c-23.554-24.481-42.06-49.125-51.981-74.193a36.891 36.891 0 01-2.521-14.13V109.91a14.599 14.599 0 0111.592-14.124c7.333-1.019 14.146 3.979 15.376 11.279l10.681 69.822a95.883 95.883 0 0038.472 47.102c4.544 3.113 9.591 6.562 15.393 2.862a9.44 9.44 0 00-.838-12.453l-23.805-18.842a20.308 20.308 0 01-8.418-22.944 8.77 8.77 0 0113.638-5.064l47.945 34.24a62.706 62.706 0 0121.2 19.267 105.806 105.806 0 0118.922 67.044z" fill="#fed19a"/><path d="M77.421 330.142h91.034a5.835 5.835 0 015.835 5.835v35.47a5.835 5.835 0 01-5.835 5.835H77.421a5.835 5.835 0 01-5.835-5.835v-35.47a5.835 5.835 0 015.835-5.835z" fill="#575b6d"/><circle cx="154.286" cy="353.712" fill="#828a9e" r="7.171"/><path d="M210.04 288.099l2.018 44.502h81.515a80.715 80.715 0 0122.123-59.052c23.554-24.481 42.06-49.125 51.981-74.193 1.757-4.5 2.614-9.3 2.521-14.13V109.91a14.599 14.599 0 00-11.592-14.124c-7.333-1.019-14.146 3.979-15.376 11.279l-10.709 69.822a95.889 95.889 0 01-38.444 47.102c-4.544 3.113-9.591 6.562-15.393 2.862a9.44 9.44 0 01.838-12.453l23.805-18.842a20.308 20.308 0 008.418-22.944 8.77 8.77 0 00-13.638-5.064l-47.94 34.24a62.703 62.703 0 00-21.2 19.266 105.818 105.818 0 00-18.927 67.045z" fill="#fed19a"/><path d="M206.754 330.142h92.275a5.914 5.914 0 015.914 5.914v35.956a5.914 5.914 0 01-5.914 5.914h-92.275a5.914 5.914 0 01-5.914-5.914v-35.956a5.914 5.914 0 015.914-5.914z" fill="#575b6d"/><circle cx="221.118" cy="354.763" fill="#828a9e" r="7.266"/><path d="M231.442.001a63.604 63.604 0 00-42.479 16.248c-26.285-23.5-66.644-21.243-90.145 5.041a63.844 63.844 0 00-16.249 42.631c0 66.212 106.393 136.755 106.393 136.755s106.556-70.309 106.393-136.755c-.03-35.287-28.626-63.886-63.913-63.92z" fill="#ef5261"/></svg>