<svg xmlns="http://www.w3.org/2000/svg" viewBox="0 0 512 512"><g fill="#ffc233"><path d="M241 0h30v51.45h-30zM241 460.55h30V512h-30zM163.863 72.756l-19.69-47.535 27.718-11.482 19.69 47.536zM340.112 498.26l-19.69-47.536 27.718-11.481 19.69 47.535zM100.757 121.969l-36.38-36.38L85.59 64.374l36.38 36.38zM426.41 447.628l-36.38-36.38 21.213-21.214 36.38 36.38zM61.283 191.584l-47.536-19.69 11.481-27.719 47.536 19.69zM486.769 367.833l-47.536-19.69 11.482-27.719 47.535 19.69zM0 241h51.45v30H0zM460.55 241H512v30h-51.45zM25.225 367.825l-11.48-27.718 47.535-19.69 11.481 27.718zM450.733 191.585l-11.482-27.718 47.536-19.69 11.481 27.718zM85.593 447.621L64.38 426.408l36.38-36.38 21.214 21.213zM411.24 121.968l-21.214-21.213 36.38-36.38 21.213 21.213zM171.89 498.254l-27.718-11.482 19.69-47.535 27.719 11.481zM348.13 72.772L320.414 61.29l19.69-47.535 27.718 11.481z"/></g><path fill="#ff932e" d="M392.757 214.464l-94.497-13.732L256 115.104 235.984 249 256 330.796l84.521 44.435-16.142-94.115z"/><path fill="#ffc233" d="M213.74 200.732l-94.497 13.732 68.378 66.652-16.142 94.115L256 330.796V115.104z"/></svg>