<svg xmlns="http://www.w3.org/2000/svg" viewBox="0 0 347.182 347.182"><defs/><path xmlns="http://www.w3.org/2000/svg" fill="#666" d="M277.808 5.426C274.187 1.809 269.902 0 264.954 0c-4.945 0-9.233 1.809-12.847 5.426L157.034 100.5H82.233c-4.952 0-9.235 1.809-12.851 5.424-3.617 3.621-5.426 7.901-5.426 12.85v109.634c0 4.948 1.809 9.232 5.426 12.847 3.619 3.617 7.902 5.428 12.851 5.428h74.798l95.07 95.077c3.62 3.61 7.904 5.421 12.847 5.421 4.955 0 9.236-1.811 12.854-5.421 3.613-3.617 5.424-7.901 5.424-12.847V18.276c-.001-4.948-1.805-9.234-5.418-12.85z" data-original="#000000"/></svg>