<?xml version="1.0"?>
<svg xmlns="http://www.w3.org/2000/svg" xmlns:xlink="http://www.w3.org/1999/xlink" xmlns:svgjs="http://svgjs.com/svgjs" version="1.1" width="512" height="512" x="0" y="0" viewBox="0 0 505 505" style="enable-background:new 0 0 512 512" xml:space="preserve" class=""><g>
<path xmlns="http://www.w3.org/2000/svg" style="" d="M0,252.5C0,113,113,0,252.5,0C391.9,0,505,113,505,252.5S391.9,505,252.5,505C113,505,0,392,0,252.5z  " fill="#06c896" data-original="#84dbff" class=""/>
<path xmlns="http://www.w3.org/2000/svg" style="" d="M195,280.5h15.5c12,0,18.8-13.7,11.6-23.3L161.3,177c-5.8-7.7-17.4-7.7-23.2,0l-60.8,80.2  c-7.3,9.6-0.4,23.3,11.6,23.3h14C124.7,381,220.5,423,292.2,400c6.3-2,5.1-11.3-1.6-11.8C224.5,383.4,188,325.8,195,280.5z" fill="#ffffff" data-original="#ff7058" class=""/>
<path xmlns="http://www.w3.org/2000/svg" style="" d="M310,224.5h-15.5c-12,0-18.8,13.7-11.6,23.3l60.8,80.3c5.8,7.7,17.4,7.7,23.2,0l60.8-80.3  c7.3-9.6,0.4-23.3-11.6-23.3h-14C380.2,124,284.4,82,212.7,105c-6.3,2-5.1,11.3,1.6,11.8C280.5,121.6,317,179.2,310,224.5z" fill="#ffffff" data-original="#324a5e" class=""/>
<g xmlns="http://www.w3.org/2000/svg">
</g>
<g xmlns="http://www.w3.org/2000/svg">
</g>
<g xmlns="http://www.w3.org/2000/svg">
</g>
<g xmlns="http://www.w3.org/2000/svg">
</g>
<g xmlns="http://www.w3.org/2000/svg">
</g>
<g xmlns="http://www.w3.org/2000/svg">
</g>
<g xmlns="http://www.w3.org/2000/svg">
</g>
<g xmlns="http://www.w3.org/2000/svg">
</g>
<g xmlns="http://www.w3.org/2000/svg">
</g>
<g xmlns="http://www.w3.org/2000/svg">
</g>
<g xmlns="http://www.w3.org/2000/svg">
</g>
<g xmlns="http://www.w3.org/2000/svg">
</g>
<g xmlns="http://www.w3.org/2000/svg">
</g>
<g xmlns="http://www.w3.org/2000/svg">
</g>
<g xmlns="http://www.w3.org/2000/svg">
</g>
</g></svg>
